# xmcd
#
# Track frame offsets: 
#        150
#        14487
#        30120
#        44662
#        61940
#        78214
#        96899
#        119497
#        136726
#        154377
#
# Disc length: 2286 seconds
#
# Revision: 0
# Processed by: cddbd v1.5.2PL0 Copyright (c) Steve Scherf et al.
# Submitted via: ExactAudioCopy v1.0b1
#
DISCID=7908ec0a
DTITLE=Shooster Kathy - From The Rising Of The Sun
DYEAR=2007
DGENRE=Messianic Praise
TTITLE0=From the Rising of the Sun
TTITLE1=Favor on Zion
TTITLE2=Hineni Adonai (Here I am Lord)
TTITLE3=Breathe on Me
TTITLE4=Shelter
TTITLE5=Eagle’s Wings
TTITLE6=Bless the Lord
TTITLE7=Seek the Lord
TTITLE8=I Hear the Lord
TTITLE9=Holy One
EXTD=
EXTT0=
EXTT1=
EXTT2=
EXTT3=
EXTT4=
EXTT5=
EXTT6=
EXTT7=
EXTT8=
EXTT9=
PLAYORDER=
